<?xml version="1.0" encoding="utf-8"?>
<!-- Generator: Adobe Illustrator 17.0.0, SVG Export Plug-In . SVG Version: 6.00 Build 0)  -->
<!DOCTYPE svg PUBLIC "-//W3C//DTD SVG 1.1//EN" "http://www.w3.org/Graphics/SVG/1.1/DTD/svg11.dtd">
<svg version="1.1" id="ARROW__x2F__RIGHT_1_" xmlns="http://www.w3.org/2000/svg" xmlns:xlink="http://www.w3.org/1999/xlink"
	 x="0px" y="0px" width="1.44px" height="2.16px" viewBox="0 0 1.44 2.16" enable-background="new 0 0 1.44 2.16"
	 xml:space="preserve">
<g id="ARROW__x2F__RIGHT">
	<g>
		<path fill-rule="evenodd" clip-rule="evenodd" fill="#FFFFFF" d="M1.385,0.968L1.385,0.968l-1.08-0.926l0,0
			C0.272,0.016,0.228,0,0.18,0C0.081,0,0,0.069,0,0.154c0,0.047,0.024,0.089,0.063,0.117L1.006,1.08L0.05,1.899l0,0
			C0.019,1.926,0,1.964,0,2.006C0,2.091,0.081,2.16,0.18,2.16c0.049,0,0.093-0.016,0.125-0.043l0,0l1.08-0.926l0,0
			C1.419,1.163,1.44,1.124,1.44,1.08c0,0,0,0,0,0c0,0,0,0,0,0C1.44,1.036,1.419,0.996,1.385,0.968z"/>
	</g>
</g>
</svg>
