<?xml version="1.0" encoding="utf-8"?>
<!-- Generator: Adobe Illustrator 17.0.0, SVG Export Plug-In . SVG Version: 6.00 Build 0)  -->
<!DOCTYPE svg PUBLIC "-//W3C//DTD SVG 1.1//EN" "http://www.w3.org/Graphics/SVG/1.1/DTD/svg11.dtd">
<svg version="1.1" id="ARROW__x2F__RIGHT_1_" xmlns="http://www.w3.org/2000/svg" xmlns:xlink="http://www.w3.org/1999/xlink"
	 x="0px" y="0px" width="1.44px" height="2.16px" viewBox="0 0 1.44 2.16" enable-background="new 0 0 1.44 2.16"
	 xml:space="preserve">
<g id="ARROW__x2F__RIGHT">
	<g>
		<path fill-rule="evenodd" clip-rule="evenodd" fill="#FFFFFF" d="M0.055,1.192L0.055,1.192l1.08,0.926l0,0
			C1.168,2.144,1.212,2.16,1.26,2.16c0.099,0,0.18-0.069,0.18-0.154c0-0.047-0.024-0.089-0.063-0.117L0.434,1.08L1.39,0.261l0,0
			c0.031-0.028,0.05-0.065,0.05-0.107C1.44,0.069,1.359,0,1.26,0C1.211,0,1.167,0.016,1.135,0.043l0,0l-1.08,0.926l0,0
			C0.021,0.997,0,1.036,0,1.08c0,0,0,0,0,0c0,0,0,0,0,0C0,1.124,0.021,1.164,0.055,1.192z"/>
	</g>
</g>
</svg>
